{
  "title": "Captain America: The Winter Soldier (2014) Dual Audio BDRip 720p",
  "uid": 10674398,
  "size": 5238727783,
  "categoryP": "video",
  "categoryS": "hd___movies",
  "magnet": "?xt=urn:btih:156ea6dad095c9d86e50b114229c03914240dc73&amp;dn=Captain+America%3A+The+Winter+Soldier+%282014%29+Dual+Audio+BDRip+720p&amp;tr=udp%3A%2F%2Ftracker.openbittorrent.com%3A80&amp;tr=udp%3A%2F%2Fopen.demonii.com%3A1337&amp;tr=udp%3A%2F%2Ftracker.coppersurfer.tk%3A6969&amp;tr=udp%3A%2F%2Fexodus.desync.com%3A6969",
  "seeders": 86,
  "leechers": 2,
  "uploader": "darkj6",
  "files": -1,
  "time": 1406921040,
  "description": " ______   _______  ______    ___   _      ___  --------|\n|      | |   _   ||    _ |  |   | | |    |   ||   |----|    \n|  _    ||  |_|  ||   | ||  |   |_| |    |   ||   |___ \n| | |   ||       ||   |_||_ |      _|    |   ||    _  |\n| |_|   ||       ||    __  ||     |_  ___|   ||   | | |\n|       ||   _   ||   |  | ||    _  ||       ||   |_| |\n|______| |__| |__||___|  |_||___| |_||_______||_______|\n\nJoin ThePirateBay Forum:\n                &lt;a href=&quot;\nhttps://forum.suprbay.org/member.php?action=register&amp;referrer=908&quot; rel=&quot;nofollow&quot; target=&quot;_NEW&quot;&gt;\nhttps://forum.suprbay.org/member.php?action=register&amp;referrer=908&lt;/a&gt;\n\n\nQuality: BDRip 720p \n\nVideo : 1280x536 (2.35:1), 23.976 fps, 4242 Kbps (0.258 bit / pixel) \n\nAudio 1: Russian, 5.1, 448 kbps, 48 kHz \n\n\nAudio 2: English, 5.1, 448 kbps, 48 kHz\n\n &lt;a href=&quot;\nhttp://lostpic.net/?photo=1749273&quot; rel=&quot;nofollow&quot; target=&quot;_NEW&quot;&gt;\nhttp://lostpic.net/?photo=1749273&lt;/a&gt;\n &lt;a href=&quot;\nhttp://lostpic.net/?photo=1749274&quot; rel=&quot;nofollow&quot; target=&quot;_NEW&quot;&gt;\nhttp://lostpic.net/?photo=1749274&lt;/a&gt;\n &lt;a href=&quot;\nhttp://lostpic.net/?photo=1749275&quot; rel=&quot;nofollow&quot; target=&quot;_NEW&quot;&gt;\nhttp://lostpic.net/?photo=1749275&lt;/a&gt;\n\n &lt;a href=&quot;\nhttp://www.imdb.com/title/tt1843866/&quot; rel=&quot;nofollow&quot; target=&quot;_NEW&quot;&gt;\nhttp://www.imdb.com/title/tt1843866/&lt;/a&gt;\n\n\nTitle Captain.America.The.Winter.Soldier.2014.BDRip720p.mkv \nFormat: Matroska \nFormat version: Version 2 \nFile Size: 4.88 GiB \nDuration: 2h 15mn \nOverall Bitrate: 5140 Kbps \nEncoded date: UTC 2014-08-01 05:19:31 \nPowered by application: mkvmerge v5.8.0 ('No Sleep / Pillow') built on Sep February 2012 15:37:04 \nWriting library: libebml v1.2.3 + libmatroska v1.3.0 \n\nVideo \nID: 1 \nFormat: AVC \nFormat / Info: Advanced Video Codec \nFormat profile: &lt;a class=&quot;__cf_email__&quot; href=&quot;/cdn-cgi/l/email-protection&quot; data-cfemail=&quot;bff7d6d8d7fff38b918e&quot;&gt;[email&amp;#160;protected]&lt;/a&gt;&lt;script cf-hash='f9e31' type=&quot;text/javascript&quot;&gt;\n/* &lt;![CDATA[ */!function(){try{var t=&quot;currentScript&quot;in document?document.currentScript:function(){for(var t=document.getElementsByTagName(&quot;script&quot;),e=t.length;e--;)if(t[e].getAttribute(&quot;cf-hash&quot;))return t[e]}();if(t&amp;&amp;t.previousSibling){var e,r,n,i,c=t.previousSibling,a=c.getAttribute(&quot;data-cfemail&quot;);if(a){for(e=&quot;&quot;,r=parseInt(a.substr(0,2),16),n=2;a.length-n;n+=2)i=parseInt(a.substr(n,2),16)^r,e+=String.fromCharCode(i);e=document.createTextNode(e),c.parentNode.replaceChild(e,c)}}}catch(u){}}();/* ]]&gt; */&lt;/script&gt; \nFormat settings, CABAC: Yes \nFormat settings, ReFrames: 5 frames \nCodec ID: V_MPEG4/ISO/AVC \nDuration: 2h 15mn \nBitrate: 4242 Kbps \nWidth: 1280 pixels \nHeight: 536 pixels \nAspect ratio: 2.40:1 \nFrame rate mode: Constant \nFrame rate: 23.976 fps \nColor reproduction: YUV \nChroma subsampling: 4:2:0 \nBit depth: 8 bits \nScan type: Progressive \nBits / (Pixel * Frame): 0.258 \nStream size: 3.93 GiB (81%) \nWriting library: x264 core 142 r2431 ac76440 \nEncoding settings: cabac = 1 / ref = 5 / deblock = 1:0:0 / analyse = 0x3: 0x133 / me = umh / subme = 7 / psy = 1 / psy_rd = 1.00:0.00 / mixed_ref = 1 / me_range = 16 / chroma_me = 1 / trellis = 1 / 8x8dct = 1 / cqm = 0 / deadzone = 21,11 / fast_pskip = 0 / chroma_qp_offset = -2 / threads = 12 / lookahead_threads = 2 / sliced_threads = 0 / nr = 0 / decimate = 1 / interlaced = 0 / bluray_compat = 0 / constrained_intra = 0 / bframes = 3 / b_pyramid = 2 / b_adapt = 1 / b_bias = 0 / direct = 1 / weightb = 1 / open_gop = 0 / weightp = 2 / keyint = 250 / keyint_min = 23 / scenecut = 40 / intra_refresh = 0 / rc_lookahead = 40 / rc = 2pass / mbtree = 1 / bitrate = 4242 / ratetol = 1.0 / qcomp = 0.60 / qpmin = 0 / qpmax = 69 / qpstep = 4 / cplxblur = 20.0 / qblur = 0.5 / ip_ratio = 1.40 / aq = 1:1.00 \nLanguage: English \nDefault: Yes \nForced: No \n\nAudio # 1 \nID: 2 \nFormat: AC-3 \nFormat / Info: Audio Coding 3 \nExpansion mode: CM (complete main) \nFormat settings, Endianness: Big \nCodec ID: A_AC3 \nDuration: 2h 15mn \nBit rate mode: Constant \nBitrate: 448 Kbps \nChannels (s): 6 channels \nChannels positions: Front: LCR, Side: LR, LFE \nFrequency: 48.0 KHz \nBit depth: 16 bits \nCompression mode: Lossy \nStream size: 435 MiB (9%) \nTitle: [License] \nLanguage: Russian \nDefault: Yes \nForced: No \n\nAudio # 2 \nID: 3 \nFormat: AC-3 \nFormat / Info: Audio Coding 3 \nExpansion mode: CM (complete main) \nFormat settings, Endianness: Big \nCodec ID: A_AC3 \nDuration: 2h 15mn \nBit rate mode: Constant \nBitrate: 448 Kbps \nChannels (s): 6 channels \nChannels positions: Front: LCR, Side: LR, LFE \nFrequency: 48.0 KHz \nBit depth: 16 bits \nCompression mode: Lossy \nStream size: 435 MiB (9%) \nTitle: [Original] \nLanguage: English \nDefault: No \nForced: No \n\nMenu \n00:00:00.000: en: 00:00:00.000 \n00:03:28.667: en: 00:03:28.667 \n00:13:31.728: en: 00:13:31.728 \n00:17:57.868: en: 00:17:57.868 \n00:22:25.302: en: 00:22:25.302 \n00:33:20.415: en: 00:33:20.415 \n00:41:27.276: en: 00:41:27.276 \n00:51:37.303: en: 00:51:37.303 \n00:58:23.959: en: 00:58:23.959 \n01:07:40.348: en: 01:07:40.348 \n01:16:22.203: en: 01:16:22.203 \n01:24:43.078: en: 01:24:43.078 \n01:32:17.699: en: 01:32:17.699 \n01:37:06.612: en: 01:37:06.612 \n01:49:13.088: en: 01:49:13.088 \n01:55:03.730: en: 01:55:03.730 \n02:01:11.055: en: 02:01:11.055 \n02:06:22.241: en: 02:06:22.241",
  "parsed": {
    "xt": "urn:btih:156ea6dad095c9d86e50b114229c03914240dc73",
    "dn": "Captain America: The Winter Soldier (2014) Dual Audio BDRip 720p",
    "tr": [
      "udp://exodus.desync.com:6969",
      "udp://open.demonii.com:1337",
      "udp://tracker.coppersurfer.tk:6969",
      "udp://tracker.openbittorrent.com:80"
    ],
    "infoHash": "156ea6dad095c9d86e50b114229c03914240dc73",
    "infoHashBuffer": {
      "type": "Buffer",
      "data": [
        21,
        110,
        166,
        218,
        208,
        149,
        201,
        216,
        110,
        80,
        177,
        20,
        34,
        156,
        3,
        145,
        66,
        64,
        220,
        115
      ]
    },
    "name": "Captain America: The Winter Soldier (2014) Dual Audio BDRip 720p",
    "announce": [
      "udp://exodus.desync.com:6969",
      "udp://open.demonii.com:1337",
      "udp://tracker.coppersurfer.tk:6969",
      "udp://tracker.openbittorrent.com:80"
    ],
    "urlList": []
  },
  "previous": 88,
  "peers": 38,
  "last_updated": "2016-12-24T18:00:35.535Z"
}